<svg width="19" height="25" viewBox="0 0 19 25" fill="none" xmlns="http://www.w3.org/2000/svg">
<path d="M9.5 25C9.5 25 19 16.1156 19 9.375C19 6.8886 17.9991 4.50403 16.2175 2.74587C14.4359 0.98772 12.0196 0 9.5 0C6.98044 0 4.56408 0.98772 2.78249 2.74587C1.00089 4.50403 3.75443e-08 6.8886 0 9.375C0 16.1156 9.5 25 9.5 25ZM9.5 14.0625C8.24022 14.0625 7.03204 13.5686 6.14124 12.6896C5.25045 11.8105 4.75 10.6182 4.75 9.375C4.75 8.1318 5.25045 6.93951 6.14124 6.06044C7.03204 5.18136 8.24022 4.6875 9.5 4.6875C10.7598 4.6875 11.968 5.18136 12.8588 6.06044C13.7496 6.93951 14.25 8.1318 14.25 9.375C14.25 10.6182 13.7496 11.8105 12.8588 12.6896C11.968 13.5686 10.7598 14.0625 9.5 14.0625Z" fill="#ABB2BF"/>
</svg>
